<?xml version="1.0" encoding="utf-8"?>
<svg xmlns="http://www.w3.org/2000/svg" viewBox="0 0 500 500" xmlns:bx="https://boxy-svg.com">
  <defs>
    <bx:grid x="0" y="0" width="41.594" height="41.594"/>
    <bx:grid x="0" y="0" width="41.594" height="41.594"/>
    <linearGradient id="gradient-1" bx:pinned="true">
      <stop offset="0" style="stop-color: rgb(217, 153, 99);"/>
      <stop offset="1" style="stop-color: rgb(198, 70, 70);"/>
    </linearGradient>
    <linearGradient id="gradient-0">
      <stop offset="0" style="stop-color: rgb(198, 70, 70);"/>
      <stop offset="1" style="stop-color: rgb(217, 153, 99);"/>
    </linearGradient>
    <linearGradient id="gradient-1-0" href="#gradient-1" gradientUnits="userSpaceOnUse" x1="250" y1="0" x2="250" y2="500"/>
    <linearGradient id="gradient-0-2" href="#gradient-0" gradientUnits="userSpaceOnUse" x1="249.855" y1="83.188" x2="249.855" y2="416.522"/>
  </defs>
  <path d="M 41.666 0 L 458.333 0 C 481.345 0 500 18.655 500 41.667 L 500 458.333 C 500 481.345 481.345 500 458.333 500 L 41.666 500 C 18.654 500 0 481.345 0 458.333 L 0 41.667 C 0 18.655 18.654 0 41.666 0 Z" stroke-width="20" style="stroke-width: 20; fill: url(&quot;#gradient-1-0&quot;);"/>
  <path d="M 124.855 83.188 L 374.855 83.188 C 397.866 83.188 416.521 101.843 416.521 124.855 L 416.521 374.855 C 416.521 397.867 397.866 416.522 374.855 416.522 L 124.855 416.522 C 101.843 416.522 83.188 397.867 83.188 374.855 L 83.188 124.855 C 83.188 101.843 101.843 83.188 124.855 83.188 Z" stroke-width="20" style="stroke-width: 20; fill: url(&quot;#gradient-0-2&quot;);"/>
  <path d="M 26.692 257.496 C 26.692 202.177 53.051 152.814 94.287 120.518 C 71.89 89.856 111.234 11.129 111.234 11.129 C 112.412 36.227 156.43 74.601 169.494 85.452 C 182.152 82.76 195.302 81.341 208.796 81.341 C 208.809 81.341 208.821 81.341 208.831 81.341 L 351.315 81.341 C 362.544 72.109 409.582 31.957 410.802 6 C 410.802 6 431.286 46.995 434.278 81.341 L 451.604 81.341 L 451.604 152.894 C 451.599 152.894 353.071 152.894 353.063 152.894 C 351.264 152.894 349.473 152.938 347.694 153.022 C 347.689 153.022 219.325 153.022 219.316 153.022 C 159.791 153.022 111.534 199.701 111.534 257.28 C 111.534 314.864 159.791 361.541 219.316 361.541 L 363.025 361.541 L 363.025 361.416 L 451.604 361.416 L 451.604 433.651 L 208.796 433.651 C 108.222 433.651 26.692 354.782 26.692 257.496 Z" style="fill: rgb(255, 255, 255);"/>
</svg>
