<?xml version="1.0" encoding="utf-8"?>
<svg xmlns="http://www.w3.org/2000/svg" viewBox="-50 -50 600 600" xmlns:bx="https://boxy-svg.com">
  <path fill="#db633eff" d="M 26.692 257.496 C 26.692 202.177 53.051 152.814 94.287 120.518 C 71.89 89.856 111.234 11.129 111.234 11.129 C 112.412 36.227 156.43 74.601 169.494 85.452 C 182.152 82.76 195.302 81.341 208.796 81.341 C 208.809 81.341 208.821 81.341 208.831 81.341 L 351.315 81.341 C 362.544 72.109 409.582 31.957 410.802 6 C 410.802 6 431.286 46.995 434.278 81.341 L 451.604 81.341 L 451.604 152.894 C 451.599 152.894 353.071 152.894 353.063 152.894 C 351.264 152.894 349.473 152.938 347.694 153.022 C 347.689 153.022 219.325 153.022 219.316 153.022 C 159.791 153.022 111.534 199.701 111.534 257.28 C 111.534 314.864 159.791 361.541 219.316 361.541 L 363.025 361.541 L 363.025 361.416 L 451.604 361.416 L 451.604 433.651 L 208.796 433.651 C 108.222 433.651 26.692 354.782 26.692 257.496 Z"/>
</svg>
